<mxfile host="app.diagrams.net" agent="Mozilla/5.0 (Windows NT 10.0; Win64; x64) AppleWebKit/537.36 (KHTML, like Gecko) Chrome/131.0.0.0 Safari/537.36" version="24.8.6" pages="2">
  <diagram id="R2lEEEUBdFMjLlhIrx00" name="Page-1">
    <mxGraphModel dx="794" dy="507" grid="1" gridSize="10" guides="1" tooltips="1" connect="1" arrows="1" fold="1" page="1" pageScale="1" pageWidth="850" pageHeight="1100" background="none" math="0" shadow="0" extFonts="Permanent Marker^https://fonts.googleapis.com/css?family=Permanent+Marker">
      <root>
        <mxCell id="0" />
        <mxCell id="1" parent="0" />
        <mxCell id="C-vyLk0tnHw3VtMMgP7b-2" value="Cour" style="shape=table;startSize=30;container=1;collapsible=1;childLayout=tableLayout;fixedRows=1;rowLines=0;fontStyle=1;align=center;resizeLast=1;labelBackgroundColor=none;fillColor=#5D7F99;strokeColor=#D0CEE2;fontColor=#1A1A1A;" parent="1" vertex="1">
          <mxGeometry x="550" y="130" width="250" height="130" as="geometry" />
        </mxCell>
        <mxCell id="C-vyLk0tnHw3VtMMgP7b-3" value="" style="shape=partialRectangle;collapsible=0;dropTarget=0;pointerEvents=0;fillColor=none;points=[[0,0.5],[1,0.5]];portConstraint=eastwest;top=0;left=0;right=0;bottom=1;labelBackgroundColor=none;strokeColor=#D0CEE2;fontColor=#1A1A1A;" parent="C-vyLk0tnHw3VtMMgP7b-2" vertex="1">
          <mxGeometry y="30" width="250" height="30" as="geometry" />
        </mxCell>
        <mxCell id="C-vyLk0tnHw3VtMMgP7b-4" value="PK" style="shape=partialRectangle;overflow=hidden;connectable=0;fillColor=none;top=0;left=0;bottom=0;right=0;fontStyle=1;labelBackgroundColor=none;strokeColor=#D0CEE2;fontColor=#1A1A1A;" parent="C-vyLk0tnHw3VtMMgP7b-3" vertex="1">
          <mxGeometry width="30" height="30" as="geometry">
            <mxRectangle width="30" height="30" as="alternateBounds" />
          </mxGeometry>
        </mxCell>
        <mxCell id="C-vyLk0tnHw3VtMMgP7b-5" value="id_cour int NOT NULL " style="shape=partialRectangle;overflow=hidden;connectable=0;fillColor=none;top=0;left=0;bottom=0;right=0;align=left;spacingLeft=6;fontStyle=5;labelBackgroundColor=none;strokeColor=#D0CEE2;fontColor=#1A1A1A;" parent="C-vyLk0tnHw3VtMMgP7b-3" vertex="1">
          <mxGeometry x="30" width="220" height="30" as="geometry">
            <mxRectangle width="220" height="30" as="alternateBounds" />
          </mxGeometry>
        </mxCell>
        <mxCell id="C-vyLk0tnHw3VtMMgP7b-6" value="" style="shape=partialRectangle;collapsible=0;dropTarget=0;pointerEvents=0;fillColor=none;points=[[0,0.5],[1,0.5]];portConstraint=eastwest;top=0;left=0;right=0;bottom=0;labelBackgroundColor=none;strokeColor=#D0CEE2;fontColor=#1A1A1A;" parent="C-vyLk0tnHw3VtMMgP7b-2" vertex="1">
          <mxGeometry y="60" width="250" height="30" as="geometry" />
        </mxCell>
        <mxCell id="C-vyLk0tnHw3VtMMgP7b-7" value="" style="shape=partialRectangle;overflow=hidden;connectable=0;fillColor=none;top=0;left=0;bottom=0;right=0;labelBackgroundColor=none;strokeColor=#D0CEE2;fontColor=#1A1A1A;" parent="C-vyLk0tnHw3VtMMgP7b-6" vertex="1">
          <mxGeometry width="30" height="30" as="geometry">
            <mxRectangle width="30" height="30" as="alternateBounds" />
          </mxGeometry>
        </mxCell>
        <mxCell id="C-vyLk0tnHw3VtMMgP7b-8" value="nom_cour" style="shape=partialRectangle;overflow=hidden;connectable=0;fillColor=none;top=0;left=0;bottom=0;right=0;align=left;spacingLeft=6;labelBackgroundColor=none;strokeColor=#D0CEE2;fontColor=#1A1A1A;" parent="C-vyLk0tnHw3VtMMgP7b-6" vertex="1">
          <mxGeometry x="30" width="220" height="30" as="geometry">
            <mxRectangle width="220" height="30" as="alternateBounds" />
          </mxGeometry>
        </mxCell>
        <mxCell id="C-vyLk0tnHw3VtMMgP7b-9" value="" style="shape=partialRectangle;collapsible=0;dropTarget=0;pointerEvents=0;fillColor=none;points=[[0,0.5],[1,0.5]];portConstraint=eastwest;top=0;left=0;right=0;bottom=0;labelBackgroundColor=none;strokeColor=#D0CEE2;fontColor=#1A1A1A;" parent="C-vyLk0tnHw3VtMMgP7b-2" vertex="1">
          <mxGeometry y="90" width="250" height="30" as="geometry" />
        </mxCell>
        <mxCell id="C-vyLk0tnHw3VtMMgP7b-10" value="" style="shape=partialRectangle;overflow=hidden;connectable=0;fillColor=none;top=0;left=0;bottom=0;right=0;labelBackgroundColor=none;strokeColor=#D0CEE2;fontColor=#1A1A1A;" parent="C-vyLk0tnHw3VtMMgP7b-9" vertex="1">
          <mxGeometry width="30" height="30" as="geometry">
            <mxRectangle width="30" height="30" as="alternateBounds" />
          </mxGeometry>
        </mxCell>
        <mxCell id="C-vyLk0tnHw3VtMMgP7b-11" value="credits " style="shape=partialRectangle;overflow=hidden;connectable=0;fillColor=none;top=0;left=0;bottom=0;right=0;align=left;spacingLeft=6;labelBackgroundColor=none;strokeColor=#D0CEE2;fontColor=#1A1A1A;" parent="C-vyLk0tnHw3VtMMgP7b-9" vertex="1">
          <mxGeometry x="30" width="220" height="30" as="geometry">
            <mxRectangle width="220" height="30" as="alternateBounds" />
          </mxGeometry>
        </mxCell>
        <mxCell id="C-vyLk0tnHw3VtMMgP7b-13" value="Enseignant" style="shape=table;startSize=30;container=1;collapsible=1;childLayout=tableLayout;fixedRows=1;rowLines=0;fontStyle=1;align=center;resizeLast=1;labelBackgroundColor=none;fillColor=#5D7F99;strokeColor=#D0CEE2;fontColor=#1A1A1A;" parent="1" vertex="1">
          <mxGeometry x="550" y="360" width="250" height="170" as="geometry" />
        </mxCell>
        <mxCell id="C-vyLk0tnHw3VtMMgP7b-14" value="" style="shape=partialRectangle;collapsible=0;dropTarget=0;pointerEvents=0;fillColor=none;points=[[0,0.5],[1,0.5]];portConstraint=eastwest;top=0;left=0;right=0;bottom=1;labelBackgroundColor=none;strokeColor=#D0CEE2;fontColor=#1A1A1A;" parent="C-vyLk0tnHw3VtMMgP7b-13" vertex="1">
          <mxGeometry y="30" width="250" height="30" as="geometry" />
        </mxCell>
        <mxCell id="C-vyLk0tnHw3VtMMgP7b-15" value="PK" style="shape=partialRectangle;overflow=hidden;connectable=0;fillColor=none;top=0;left=0;bottom=0;right=0;fontStyle=1;labelBackgroundColor=none;strokeColor=#D0CEE2;fontColor=#1A1A1A;" parent="C-vyLk0tnHw3VtMMgP7b-14" vertex="1">
          <mxGeometry width="30" height="30" as="geometry">
            <mxRectangle width="30" height="30" as="alternateBounds" />
          </mxGeometry>
        </mxCell>
        <mxCell id="C-vyLk0tnHw3VtMMgP7b-16" value="id_enseignant int NOT NULL " style="shape=partialRectangle;overflow=hidden;connectable=0;fillColor=none;top=0;left=0;bottom=0;right=0;align=left;spacingLeft=6;fontStyle=5;labelBackgroundColor=none;strokeColor=#D0CEE2;fontColor=#1A1A1A;" parent="C-vyLk0tnHw3VtMMgP7b-14" vertex="1">
          <mxGeometry x="30" width="220" height="30" as="geometry">
            <mxRectangle width="220" height="30" as="alternateBounds" />
          </mxGeometry>
        </mxCell>
        <mxCell id="C-vyLk0tnHw3VtMMgP7b-17" value="" style="shape=partialRectangle;collapsible=0;dropTarget=0;pointerEvents=0;fillColor=none;points=[[0,0.5],[1,0.5]];portConstraint=eastwest;top=0;left=0;right=0;bottom=0;labelBackgroundColor=none;strokeColor=#D0CEE2;fontColor=#1A1A1A;" parent="C-vyLk0tnHw3VtMMgP7b-13" vertex="1">
          <mxGeometry y="60" width="250" height="30" as="geometry" />
        </mxCell>
        <mxCell id="C-vyLk0tnHw3VtMMgP7b-18" value="" style="shape=partialRectangle;overflow=hidden;connectable=0;fillColor=none;top=0;left=0;bottom=0;right=0;labelBackgroundColor=none;strokeColor=#D0CEE2;fontColor=#1A1A1A;" parent="C-vyLk0tnHw3VtMMgP7b-17" vertex="1">
          <mxGeometry width="30" height="30" as="geometry">
            <mxRectangle width="30" height="30" as="alternateBounds" />
          </mxGeometry>
        </mxCell>
        <mxCell id="C-vyLk0tnHw3VtMMgP7b-19" value="" style="shape=partialRectangle;overflow=hidden;connectable=0;fillColor=none;top=0;left=0;bottom=0;right=0;align=left;spacingLeft=6;labelBackgroundColor=none;strokeColor=#D0CEE2;fontColor=#1A1A1A;" parent="C-vyLk0tnHw3VtMMgP7b-17" vertex="1">
          <mxGeometry x="30" width="220" height="30" as="geometry">
            <mxRectangle width="220" height="30" as="alternateBounds" />
          </mxGeometry>
        </mxCell>
        <mxCell id="C-vyLk0tnHw3VtMMgP7b-20" value="" style="shape=partialRectangle;collapsible=0;dropTarget=0;pointerEvents=0;fillColor=none;points=[[0,0.5],[1,0.5]];portConstraint=eastwest;top=0;left=0;right=0;bottom=0;labelBackgroundColor=none;strokeColor=#D0CEE2;fontColor=#1A1A1A;" parent="C-vyLk0tnHw3VtMMgP7b-13" vertex="1">
          <mxGeometry y="90" width="250" height="70" as="geometry" />
        </mxCell>
        <mxCell id="C-vyLk0tnHw3VtMMgP7b-21" value="" style="shape=partialRectangle;overflow=hidden;connectable=0;fillColor=none;top=0;left=0;bottom=0;right=0;labelBackgroundColor=none;strokeColor=#D0CEE2;fontColor=#1A1A1A;" parent="C-vyLk0tnHw3VtMMgP7b-20" vertex="1">
          <mxGeometry width="30" height="70" as="geometry">
            <mxRectangle width="30" height="70" as="alternateBounds" />
          </mxGeometry>
        </mxCell>
        <mxCell id="C-vyLk0tnHw3VtMMgP7b-22" value="nom&#xa;prenom&#xa;adresse&#xa;spécialité " style="shape=partialRectangle;overflow=hidden;connectable=0;fillColor=none;top=0;left=0;bottom=0;right=0;align=left;spacingLeft=6;labelBackgroundColor=none;strokeColor=#D0CEE2;fontColor=#1A1A1A;" parent="C-vyLk0tnHw3VtMMgP7b-20" vertex="1">
          <mxGeometry x="30" width="220" height="70" as="geometry">
            <mxRectangle width="220" height="70" as="alternateBounds" />
          </mxGeometry>
        </mxCell>
        <mxCell id="iBuxSUrUnS-5P7BRvqKS-11" style="edgeStyle=orthogonalEdgeStyle;rounded=0;orthogonalLoop=1;jettySize=auto;html=1;exitX=0.5;exitY=1;exitDx=0;exitDy=0;entryX=0.5;entryY=0;entryDx=0;entryDy=0;fontFamily=Helvetica;fontSize=12;fontColor=default;fontStyle=0;labelBackgroundColor=none;strokeColor=#736CA8;" edge="1" parent="1" source="C-vyLk0tnHw3VtMMgP7b-23">
          <mxGeometry relative="1" as="geometry">
            <mxPoint x="200" y="390" as="targetPoint" />
          </mxGeometry>
        </mxCell>
        <mxCell id="iBuxSUrUnS-5P7BRvqKS-12" value="recevoir" style="edgeLabel;html=1;align=center;verticalAlign=middle;resizable=0;points=[];rounded=0;glass=0;strokeColor=#D0CEE2;strokeWidth=1;fontFamily=Helvetica;fontSize=12;fontColor=#1A1A1A;fontStyle=0;fillColor=none;labelBackgroundColor=none;" vertex="1" connectable="0" parent="iBuxSUrUnS-5P7BRvqKS-11">
          <mxGeometry x="0.0115" y="1" relative="1" as="geometry">
            <mxPoint as="offset" />
          </mxGeometry>
        </mxCell>
        <mxCell id="iBuxSUrUnS-5P7BRvqKS-31" value="1,n" style="edgeLabel;html=1;align=center;verticalAlign=middle;resizable=0;points=[];strokeColor=#D0CEE2;fontColor=#1A1A1A;fillColor=#5D7F99;" vertex="1" connectable="0" parent="iBuxSUrUnS-5P7BRvqKS-11">
          <mxGeometry x="0.5987" relative="1" as="geometry">
            <mxPoint y="1" as="offset" />
          </mxGeometry>
        </mxCell>
        <mxCell id="iBuxSUrUnS-5P7BRvqKS-32" value="1,n" style="edgeLabel;html=1;align=center;verticalAlign=middle;resizable=0;points=[];strokeColor=#D0CEE2;fontColor=#1A1A1A;fillColor=#5D7F99;" vertex="1" connectable="0" parent="iBuxSUrUnS-5P7BRvqKS-11">
          <mxGeometry x="-0.6109" relative="1" as="geometry">
            <mxPoint as="offset" />
          </mxGeometry>
        </mxCell>
        <mxCell id="iBuxSUrUnS-5P7BRvqKS-15" style="edgeStyle=orthogonalEdgeStyle;rounded=0;orthogonalLoop=1;jettySize=auto;html=1;entryX=0;entryY=0.5;entryDx=0;entryDy=0;fontFamily=Helvetica;fontSize=12;fontColor=default;fontStyle=0;labelBackgroundColor=none;strokeColor=#736CA8;" edge="1" parent="1" source="C-vyLk0tnHw3VtMMgP7b-23" target="C-vyLk0tnHw3VtMMgP7b-3">
          <mxGeometry relative="1" as="geometry" />
        </mxCell>
        <mxCell id="iBuxSUrUnS-5P7BRvqKS-17" value="suivre" style="edgeLabel;html=1;align=center;verticalAlign=middle;resizable=0;points=[];rounded=0;glass=0;strokeColor=#D0CEE2;strokeWidth=1;fontFamily=Helvetica;fontSize=12;fontColor=#1A1A1A;fontStyle=0;fillColor=none;labelBackgroundColor=none;" vertex="1" connectable="0" parent="iBuxSUrUnS-5P7BRvqKS-15">
          <mxGeometry x="0.0039" relative="1" as="geometry">
            <mxPoint as="offset" />
          </mxGeometry>
        </mxCell>
        <mxCell id="iBuxSUrUnS-5P7BRvqKS-33" value="1,n" style="edgeLabel;html=1;align=center;verticalAlign=middle;resizable=0;points=[];strokeColor=#D0CEE2;fontColor=#1A1A1A;fillColor=#5D7F99;" vertex="1" connectable="0" parent="iBuxSUrUnS-5P7BRvqKS-15">
          <mxGeometry x="-0.4959" y="2" relative="1" as="geometry">
            <mxPoint as="offset" />
          </mxGeometry>
        </mxCell>
        <mxCell id="iBuxSUrUnS-5P7BRvqKS-34" value="1,n" style="edgeLabel;html=1;align=center;verticalAlign=middle;resizable=0;points=[];strokeColor=#D0CEE2;fontColor=#1A1A1A;fillColor=#5D7F99;" vertex="1" connectable="0" parent="iBuxSUrUnS-5P7BRvqKS-15">
          <mxGeometry x="0.5577" y="1" relative="1" as="geometry">
            <mxPoint as="offset" />
          </mxGeometry>
        </mxCell>
        <mxCell id="C-vyLk0tnHw3VtMMgP7b-23" value="Étudiant " style="shape=table;startSize=30;container=1;collapsible=1;childLayout=tableLayout;fixedRows=1;rowLines=0;fontStyle=1;align=center;resizeLast=1;labelBackgroundColor=none;fillColor=#5D7F99;strokeColor=#D0CEE2;fontColor=#1A1A1A;" parent="1" vertex="1">
          <mxGeometry x="110" y="120" width="250" height="140" as="geometry" />
        </mxCell>
        <mxCell id="C-vyLk0tnHw3VtMMgP7b-24" value="" style="shape=partialRectangle;collapsible=0;dropTarget=0;pointerEvents=0;fillColor=none;points=[[0,0.5],[1,0.5]];portConstraint=eastwest;top=0;left=0;right=0;bottom=1;labelBackgroundColor=none;strokeColor=#D0CEE2;fontColor=#1A1A1A;" parent="C-vyLk0tnHw3VtMMgP7b-23" vertex="1">
          <mxGeometry y="30" width="250" height="30" as="geometry" />
        </mxCell>
        <mxCell id="C-vyLk0tnHw3VtMMgP7b-25" value="PK" style="shape=partialRectangle;overflow=hidden;connectable=0;fillColor=none;top=0;left=0;bottom=0;right=0;fontStyle=1;labelBackgroundColor=none;strokeColor=#D0CEE2;fontColor=#1A1A1A;" parent="C-vyLk0tnHw3VtMMgP7b-24" vertex="1">
          <mxGeometry width="30" height="30" as="geometry">
            <mxRectangle width="30" height="30" as="alternateBounds" />
          </mxGeometry>
        </mxCell>
        <mxCell id="C-vyLk0tnHw3VtMMgP7b-26" value="id_étudiant int NOT NULL " style="shape=partialRectangle;overflow=hidden;connectable=0;fillColor=none;top=0;left=0;bottom=0;right=0;align=left;spacingLeft=6;fontStyle=5;labelBackgroundColor=none;strokeColor=#D0CEE2;fontColor=#1A1A1A;" parent="C-vyLk0tnHw3VtMMgP7b-24" vertex="1">
          <mxGeometry x="30" width="220" height="30" as="geometry">
            <mxRectangle width="220" height="30" as="alternateBounds" />
          </mxGeometry>
        </mxCell>
        <mxCell id="C-vyLk0tnHw3VtMMgP7b-27" value="" style="shape=partialRectangle;collapsible=0;dropTarget=0;pointerEvents=0;fillColor=none;points=[[0,0.5],[1,0.5]];portConstraint=eastwest;top=0;left=0;right=0;bottom=0;labelBackgroundColor=none;strokeColor=#D0CEE2;fontColor=#1A1A1A;" parent="C-vyLk0tnHw3VtMMgP7b-23" vertex="1">
          <mxGeometry y="60" width="250" height="70" as="geometry" />
        </mxCell>
        <mxCell id="C-vyLk0tnHw3VtMMgP7b-28" value="" style="shape=partialRectangle;overflow=hidden;connectable=0;fillColor=none;top=0;left=0;bottom=0;right=0;labelBackgroundColor=none;strokeColor=#D0CEE2;fontColor=#1A1A1A;" parent="C-vyLk0tnHw3VtMMgP7b-27" vertex="1">
          <mxGeometry width="30" height="70" as="geometry">
            <mxRectangle width="30" height="70" as="alternateBounds" />
          </mxGeometry>
        </mxCell>
        <mxCell id="C-vyLk0tnHw3VtMMgP7b-29" value="nom&#xa;prenom&#xa;adresse&#xa;date de naissance" style="shape=partialRectangle;overflow=hidden;connectable=0;fillColor=none;top=0;left=0;bottom=0;right=0;align=left;spacingLeft=6;labelBackgroundColor=none;strokeColor=#D0CEE2;fontColor=#1A1A1A;" parent="C-vyLk0tnHw3VtMMgP7b-27" vertex="1">
          <mxGeometry x="30" width="220" height="70" as="geometry">
            <mxRectangle width="220" height="70" as="alternateBounds" />
          </mxGeometry>
        </mxCell>
        <mxCell id="iBuxSUrUnS-5P7BRvqKS-10" style="edgeStyle=orthogonalEdgeStyle;rounded=0;orthogonalLoop=1;jettySize=auto;html=1;exitX=1;exitY=0;exitDx=0;exitDy=0;entryX=0.011;entryY=-0.133;entryDx=0;entryDy=0;entryPerimeter=0;fontFamily=Helvetica;fontSize=12;fontColor=default;fontStyle=0;labelBackgroundColor=none;strokeColor=#736CA8;" edge="1" parent="1" target="C-vyLk0tnHw3VtMMgP7b-20">
          <mxGeometry relative="1" as="geometry">
            <mxPoint x="280" y="440" as="sourcePoint" />
          </mxGeometry>
        </mxCell>
        <mxCell id="iBuxSUrUnS-5P7BRvqKS-13" value="donner" style="edgeLabel;html=1;align=center;verticalAlign=middle;resizable=0;points=[];rounded=0;glass=0;strokeColor=#D0CEE2;strokeWidth=1;fontFamily=Helvetica;fontSize=12;fontColor=#1A1A1A;fontStyle=0;fillColor=none;rotation=358;labelBackgroundColor=none;" vertex="1" connectable="0" parent="iBuxSUrUnS-5P7BRvqKS-10">
          <mxGeometry x="0.0954" y="1" relative="1" as="geometry">
            <mxPoint as="offset" />
          </mxGeometry>
        </mxCell>
        <mxCell id="iBuxSUrUnS-5P7BRvqKS-35" value="1,1" style="edgeLabel;html=1;align=center;verticalAlign=middle;resizable=0;points=[];strokeColor=#D0CEE2;fontColor=#1A1A1A;fillColor=#5D7F99;" vertex="1" connectable="0" parent="iBuxSUrUnS-5P7BRvqKS-10">
          <mxGeometry x="-0.4312" y="-1" relative="1" as="geometry">
            <mxPoint as="offset" />
          </mxGeometry>
        </mxCell>
        <mxCell id="iBuxSUrUnS-5P7BRvqKS-36" value="1,n" style="edgeLabel;html=1;align=center;verticalAlign=middle;resizable=0;points=[];strokeColor=#D0CEE2;fontColor=#1A1A1A;fillColor=#5D7F99;" vertex="1" connectable="0" parent="iBuxSUrUnS-5P7BRvqKS-10">
          <mxGeometry x="0.5594" y="1" relative="1" as="geometry">
            <mxPoint as="offset" />
          </mxGeometry>
        </mxCell>
        <mxCell id="iBuxSUrUnS-5P7BRvqKS-14" style="edgeStyle=orthogonalEdgeStyle;rounded=0;orthogonalLoop=1;jettySize=auto;html=1;fontFamily=Helvetica;fontSize=12;fontColor=default;fontStyle=0;entryX=1.003;entryY=0.019;entryDx=0;entryDy=0;entryPerimeter=0;labelBackgroundColor=none;strokeColor=#736CA8;" edge="1" parent="1" source="C-vyLk0tnHw3VtMMgP7b-6" target="C-vyLk0tnHw3VtMMgP7b-20">
          <mxGeometry relative="1" as="geometry">
            <mxPoint x="710" y="370" as="targetPoint" />
          </mxGeometry>
        </mxCell>
        <mxCell id="iBuxSUrUnS-5P7BRvqKS-16" value="donner" style="edgeLabel;html=1;align=center;verticalAlign=middle;resizable=0;points=[];rounded=0;glass=0;strokeColor=#D0CEE2;strokeWidth=1;fontFamily=Helvetica;fontSize=12;fontColor=#1A1A1A;fontStyle=0;fillColor=none;labelBackgroundColor=none;" vertex="1" connectable="0" parent="iBuxSUrUnS-5P7BRvqKS-14">
          <mxGeometry x="0.035" y="1" relative="1" as="geometry">
            <mxPoint as="offset" />
          </mxGeometry>
        </mxCell>
        <mxCell id="iBuxSUrUnS-5P7BRvqKS-37" value="1,n" style="edgeLabel;html=1;align=center;verticalAlign=middle;resizable=0;points=[];strokeColor=#D0CEE2;fontColor=#1A1A1A;fillColor=#5D7F99;" vertex="1" connectable="0" parent="iBuxSUrUnS-5P7BRvqKS-14">
          <mxGeometry x="-0.6977" y="1" relative="1" as="geometry">
            <mxPoint as="offset" />
          </mxGeometry>
        </mxCell>
        <mxCell id="iBuxSUrUnS-5P7BRvqKS-38" value="1,n" style="edgeLabel;html=1;align=center;verticalAlign=middle;resizable=0;points=[];strokeColor=#D0CEE2;fontColor=#1A1A1A;fillColor=#5D7F99;" vertex="1" connectable="0" parent="iBuxSUrUnS-5P7BRvqKS-14">
          <mxGeometry x="0.727" y="1" relative="1" as="geometry">
            <mxPoint as="offset" />
          </mxGeometry>
        </mxCell>
        <mxCell id="iBuxSUrUnS-5P7BRvqKS-18" value="Notes" style="shape=table;startSize=30;container=1;collapsible=1;childLayout=tableLayout;fixedRows=1;rowLines=0;fontStyle=1;align=center;resizeLast=1;html=1;rounded=0;glass=0;strokeColor=#D0CEE2;strokeWidth=1;verticalAlign=middle;fontFamily=Helvetica;fontSize=12;fillColor=#5D7F99;labelBackgroundColor=none;fontColor=#1A1A1A;" vertex="1" parent="1">
          <mxGeometry x="101" y="390" width="180" height="170" as="geometry" />
        </mxCell>
        <mxCell id="iBuxSUrUnS-5P7BRvqKS-19" value="" style="shape=tableRow;horizontal=0;startSize=0;swimlaneHead=0;swimlaneBody=0;fillColor=none;collapsible=0;dropTarget=0;points=[[0,0.5],[1,0.5]];portConstraint=eastwest;top=0;left=0;right=0;bottom=1;rounded=0;glass=0;strokeColor=#D0CEE2;strokeWidth=1;align=center;verticalAlign=middle;fontFamily=Helvetica;fontSize=12;fontColor=#1A1A1A;fontStyle=0;labelBackgroundColor=none;" vertex="1" parent="iBuxSUrUnS-5P7BRvqKS-18">
          <mxGeometry y="30" width="180" height="30" as="geometry" />
        </mxCell>
        <mxCell id="iBuxSUrUnS-5P7BRvqKS-20" value="PK" style="shape=partialRectangle;connectable=0;fillColor=none;top=0;left=0;bottom=0;right=0;fontStyle=1;overflow=hidden;whiteSpace=wrap;html=1;rounded=0;glass=0;strokeColor=#D0CEE2;strokeWidth=1;align=center;verticalAlign=middle;fontFamily=Helvetica;fontSize=12;fontColor=#1A1A1A;labelBackgroundColor=none;" vertex="1" parent="iBuxSUrUnS-5P7BRvqKS-19">
          <mxGeometry width="30" height="30" as="geometry">
            <mxRectangle width="30" height="30" as="alternateBounds" />
          </mxGeometry>
        </mxCell>
        <mxCell id="iBuxSUrUnS-5P7BRvqKS-21" value="id_note" style="shape=partialRectangle;connectable=0;fillColor=none;top=0;left=0;bottom=0;right=0;align=left;spacingLeft=6;fontStyle=5;overflow=hidden;whiteSpace=wrap;html=1;rounded=0;glass=0;strokeColor=#D0CEE2;strokeWidth=1;verticalAlign=middle;fontFamily=Helvetica;fontSize=12;fontColor=#1A1A1A;labelBackgroundColor=none;" vertex="1" parent="iBuxSUrUnS-5P7BRvqKS-19">
          <mxGeometry x="30" width="150" height="30" as="geometry">
            <mxRectangle width="150" height="30" as="alternateBounds" />
          </mxGeometry>
        </mxCell>
        <mxCell id="iBuxSUrUnS-5P7BRvqKS-22" value="" style="shape=tableRow;horizontal=0;startSize=0;swimlaneHead=0;swimlaneBody=0;fillColor=none;collapsible=0;dropTarget=0;points=[[0,0.5],[1,0.5]];portConstraint=eastwest;top=0;left=0;right=0;bottom=0;rounded=0;glass=0;strokeColor=#D0CEE2;strokeWidth=1;align=center;verticalAlign=middle;fontFamily=Helvetica;fontSize=12;fontColor=#1A1A1A;fontStyle=0;labelBackgroundColor=none;" vertex="1" parent="iBuxSUrUnS-5P7BRvqKS-18">
          <mxGeometry y="60" width="180" height="30" as="geometry" />
        </mxCell>
        <mxCell id="iBuxSUrUnS-5P7BRvqKS-23" value="" style="shape=partialRectangle;connectable=0;fillColor=none;top=0;left=0;bottom=0;right=0;editable=1;overflow=hidden;whiteSpace=wrap;html=1;rounded=0;glass=0;strokeColor=#D0CEE2;strokeWidth=1;align=center;verticalAlign=middle;fontFamily=Helvetica;fontSize=12;fontColor=#1A1A1A;fontStyle=0;labelBackgroundColor=none;" vertex="1" parent="iBuxSUrUnS-5P7BRvqKS-22">
          <mxGeometry width="30" height="30" as="geometry">
            <mxRectangle width="30" height="30" as="alternateBounds" />
          </mxGeometry>
        </mxCell>
        <mxCell id="iBuxSUrUnS-5P7BRvqKS-24" value="valeur" style="shape=partialRectangle;connectable=0;fillColor=none;top=0;left=0;bottom=0;right=0;align=left;spacingLeft=6;overflow=hidden;whiteSpace=wrap;html=1;rounded=0;glass=0;strokeColor=#D0CEE2;strokeWidth=1;verticalAlign=middle;fontFamily=Helvetica;fontSize=12;fontColor=#1A1A1A;fontStyle=0;labelBackgroundColor=none;" vertex="1" parent="iBuxSUrUnS-5P7BRvqKS-22">
          <mxGeometry x="30" width="150" height="30" as="geometry">
            <mxRectangle width="150" height="30" as="alternateBounds" />
          </mxGeometry>
        </mxCell>
        <mxCell id="iBuxSUrUnS-5P7BRvqKS-25" value="" style="shape=tableRow;horizontal=0;startSize=0;swimlaneHead=0;swimlaneBody=0;fillColor=none;collapsible=0;dropTarget=0;points=[[0,0.5],[1,0.5]];portConstraint=eastwest;top=0;left=0;right=0;bottom=0;rounded=0;glass=0;strokeColor=#D0CEE2;strokeWidth=1;align=center;verticalAlign=middle;fontFamily=Helvetica;fontSize=12;fontColor=#1A1A1A;fontStyle=0;labelBackgroundColor=none;" vertex="1" parent="iBuxSUrUnS-5P7BRvqKS-18">
          <mxGeometry y="90" width="180" height="30" as="geometry" />
        </mxCell>
        <mxCell id="iBuxSUrUnS-5P7BRvqKS-26" value="" style="shape=partialRectangle;connectable=0;fillColor=none;top=0;left=0;bottom=0;right=0;editable=1;overflow=hidden;whiteSpace=wrap;html=1;rounded=0;glass=0;strokeColor=#D0CEE2;strokeWidth=1;align=center;verticalAlign=middle;fontFamily=Helvetica;fontSize=12;fontColor=#1A1A1A;fontStyle=0;labelBackgroundColor=none;" vertex="1" parent="iBuxSUrUnS-5P7BRvqKS-25">
          <mxGeometry width="30" height="30" as="geometry">
            <mxRectangle width="30" height="30" as="alternateBounds" />
          </mxGeometry>
        </mxCell>
        <mxCell id="iBuxSUrUnS-5P7BRvqKS-27" value="date" style="shape=partialRectangle;connectable=0;fillColor=none;top=0;left=0;bottom=0;right=0;align=left;spacingLeft=6;overflow=hidden;whiteSpace=wrap;html=1;rounded=0;glass=0;strokeColor=#D0CEE2;strokeWidth=1;verticalAlign=middle;fontFamily=Helvetica;fontSize=12;fontColor=#1A1A1A;fontStyle=0;labelBackgroundColor=none;" vertex="1" parent="iBuxSUrUnS-5P7BRvqKS-25">
          <mxGeometry x="30" width="150" height="30" as="geometry">
            <mxRectangle width="150" height="30" as="alternateBounds" />
          </mxGeometry>
        </mxCell>
        <mxCell id="iBuxSUrUnS-5P7BRvqKS-28" value="" style="shape=tableRow;horizontal=0;startSize=0;swimlaneHead=0;swimlaneBody=0;fillColor=none;collapsible=0;dropTarget=0;points=[[0,0.5],[1,0.5]];portConstraint=eastwest;top=0;left=0;right=0;bottom=0;rounded=0;glass=0;strokeColor=#D0CEE2;strokeWidth=1;align=center;verticalAlign=middle;fontFamily=Helvetica;fontSize=12;fontColor=#1A1A1A;fontStyle=0;labelBackgroundColor=none;" vertex="1" parent="iBuxSUrUnS-5P7BRvqKS-18">
          <mxGeometry y="120" width="180" height="50" as="geometry" />
        </mxCell>
        <mxCell id="iBuxSUrUnS-5P7BRvqKS-29" value="FK" style="shape=partialRectangle;connectable=0;fillColor=none;top=0;left=0;bottom=0;right=0;editable=1;overflow=hidden;whiteSpace=wrap;html=1;rounded=0;glass=0;strokeColor=#D0CEE2;strokeWidth=1;align=center;verticalAlign=middle;fontFamily=Helvetica;fontSize=12;fontColor=#1A1A1A;fontStyle=0;labelBackgroundColor=none;" vertex="1" parent="iBuxSUrUnS-5P7BRvqKS-28">
          <mxGeometry width="30" height="50" as="geometry">
            <mxRectangle width="30" height="50" as="alternateBounds" />
          </mxGeometry>
        </mxCell>
        <mxCell id="iBuxSUrUnS-5P7BRvqKS-30" value="id_étudiant&amp;nbsp;&lt;div&gt;&lt;span style=&quot;background-color: initial;&quot;&gt;id_cour&lt;/span&gt;&lt;/div&gt;&lt;div&gt;&lt;span style=&quot;background-color: initial;&quot;&gt;id_enseignant&lt;/span&gt;&lt;/div&gt;" style="shape=partialRectangle;connectable=0;fillColor=none;top=0;left=0;bottom=0;right=0;align=left;spacingLeft=6;overflow=hidden;whiteSpace=wrap;html=1;rounded=0;glass=0;strokeColor=#D0CEE2;strokeWidth=1;verticalAlign=middle;fontFamily=Helvetica;fontSize=12;fontColor=#1A1A1A;fontStyle=0;labelBackgroundColor=none;" vertex="1" parent="iBuxSUrUnS-5P7BRvqKS-28">
          <mxGeometry x="30" width="150" height="50" as="geometry">
            <mxRectangle width="150" height="50" as="alternateBounds" />
          </mxGeometry>
        </mxCell>
        <mxCell id="iBuxSUrUnS-5P7BRvqKS-39" value="MCD GESTION DE NOTES" style="text;html=1;align=center;verticalAlign=middle;resizable=0;points=[];autosize=1;strokeColor=#314354;fillColor=#647687;fontColor=#ffffff;" vertex="1" parent="1">
          <mxGeometry x="305" y="8" width="170" height="30" as="geometry" />
        </mxCell>
      </root>
    </mxGraphModel>
  </diagram>
  <diagram id="ETLcPkUiKjv9c7c_jP7z" name="Page-2">
    <mxGraphModel dx="794" dy="507" grid="1" gridSize="10" guides="1" tooltips="1" connect="1" arrows="1" fold="1" page="1" pageScale="1" pageWidth="827" pageHeight="1169" math="0" shadow="0">
      <root>
        <mxCell id="0" />
        <mxCell id="1" parent="0" />
        <mxCell id="ls7KMjk1L7ZIsbJ4yNd0-1" value="&lt;h3&gt;&lt;strong&gt;Modèle Physique (MPD)&lt;/strong&gt;&lt;/h3&gt;&lt;h4&gt;&lt;strong&gt;Définir les types de données et les contraintes :&lt;/strong&gt;&lt;/h4&gt;&lt;ol&gt;&lt;li&gt;&lt;p&gt;&lt;strong&gt;Étudiant&lt;/strong&gt; :&lt;/p&gt;&lt;ul&gt;&lt;li&gt;&lt;code&gt;ID_Étudiant&lt;/code&gt; : INT, PRIMARY KEY&lt;/li&gt;&lt;li&gt;&lt;code&gt;Nom&lt;/code&gt; : VARCHAR(50), NOT NULL&lt;/li&gt;&lt;li&gt;&lt;code&gt;Prénom&lt;/code&gt; : VARCHAR(50), NOT NULL&lt;/li&gt;&lt;li&gt;&lt;code&gt;Date_Naissance&lt;/code&gt; : DATE&lt;/li&gt;&lt;/ul&gt;&lt;/li&gt;&lt;li&gt;&lt;p&gt;&lt;strong&gt;Cours&lt;/strong&gt; :&lt;/p&gt;&lt;ul&gt;&lt;li&gt;&lt;code&gt;ID_Cours&lt;/code&gt; : INT, PRIMARY KEY&lt;/li&gt;&lt;li&gt;&lt;code&gt;Nom_Cours&lt;/code&gt; : VARCHAR(100), NOT NULL&lt;/li&gt;&lt;li&gt;&lt;code&gt;Crédits&lt;/code&gt; : INT, NOT NULL&lt;/li&gt;&lt;/ul&gt;&lt;/li&gt;&lt;li&gt;&lt;p&gt;&lt;strong&gt;Enseignant&lt;/strong&gt; :&lt;/p&gt;&lt;ul&gt;&lt;li&gt;&lt;code&gt;ID_Enseignant&lt;/code&gt; : INT, PRIMARY KEY&lt;/li&gt;&lt;li&gt;&lt;code&gt;Nom_Enseignant&lt;/code&gt; : VARCHAR(50), NOT NULL&lt;/li&gt;&lt;li&gt;&lt;code&gt;Spécialité&lt;/code&gt; : VARCHAR(100), NOT NULL&lt;/li&gt;&lt;/ul&gt;&lt;/li&gt;&lt;li&gt;&lt;p&gt;&lt;strong&gt;Note&lt;/strong&gt; :&lt;/p&gt;&lt;ul&gt;&lt;li&gt;&lt;code&gt;ID_Note&lt;/code&gt; : INT, PRIMARY KEY&lt;/li&gt;&lt;li&gt;&lt;code&gt;Valeur_Note&lt;/code&gt; : DECIMAL(5, 2), NOT NULL&lt;/li&gt;&lt;li&gt;&lt;code&gt;Date_Note&lt;/code&gt; : DATE, NOT NULL&lt;/li&gt;&lt;li&gt;&lt;code&gt;ID_Étudiant&lt;/code&gt; : INT, FOREIGN KEY REFERENCES &lt;code&gt;Étudiant(ID_Étudiant)&lt;/code&gt;&lt;/li&gt;&lt;li&gt;&lt;code&gt;ID_Cours&lt;/code&gt; : INT, FOREIGN KEY REFERENCES &lt;code&gt;Cours(ID_Cours)&lt;/code&gt;&lt;/li&gt;&lt;li&gt;&lt;code&gt;ID_Enseignant&lt;/code&gt; : INT, FOREIGN KEY REFERENCES &lt;code&gt;Enseignant(ID_Enseignant)&lt;/code&gt;&lt;/li&gt;&lt;/ul&gt;&lt;/li&gt;&lt;/ol&gt;" style="text;whiteSpace=wrap;html=1;fontColor=#1A1A1A;" vertex="1" parent="1">
          <mxGeometry x="150" y="20" width="560" height="500" as="geometry" />
        </mxCell>
      </root>
    </mxGraphModel>
  </diagram>
</mxfile>
